<?xml version="1.0" encoding="UTF-8"?>
<svg xmlns="http://www.w3.org/2000/svg" id="Layer_1" data-name="Layer 1" viewBox="0 0 24 24">
  <path d="m22.311,11.408l-7.416-7.438c-1.254-1.246-3.053-1.851-4.844-1.613l-4.796.775L2.563.439C1.977-.146,1.028-.146.442.439S-.144,1.975.442,2.561l2.626,2.626-.72,5.17c-.136,1.689.478,3.343,1.676,4.53l7.436,7.446c1.084,1.076,2.52,1.667,4.046,1.667h.024c1.535-.006,2.976-.61,4.057-1.701l2.751-2.776c2.228-2.247,2.214-5.891-.026-8.114Zm-2.104,6.003l-2.751,2.776c-.517.521-1.205.81-1.938.812h-.012c-.729,0-1.415-.282-1.928-.791l-7.437-7.447c-.574-.569-.867-1.359-.812-2.078l.397-2.84,1.312,1.312c-.016.114-.035.227-.035.345,0,1.381,1.119,2.5,2.5,2.5s2.5-1.119,2.5-2.5-1.119-2.5-2.5-2.5c-.118,0-.23.019-.344.035l-1.288-1.288,2.616-.423c.85-.113,1.688.171,2.289.769l7.416,7.438c1.072,1.065,1.079,2.806.015,3.88Zm-2.644-3.972c.586.586.586,1.535,0,2.121l-2,2c-.293.293-.677.439-1.061.439s-.768-.146-1.061-.439c-.586-.586-.586-1.535,0-2.121l2-2c.586-.586,1.535-.586,2.121,0Z"/>
</svg>
