<?xml version="1.0" standalone="no"?><!DOCTYPE svg PUBLIC "-//W3C//DTD SVG 1.1//EN" "http://www.w3.org/Graphics/SVG/1.1/DTD/svg11.dtd"><svg t="1729048825890" class="icon" viewBox="0 0 1024 1024" version="1.1" xmlns="http://www.w3.org/2000/svg" p-id="1453" xmlns:xlink="http://www.w3.org/1999/xlink" width="200" height="200"><path d="M512.16 790.57c-67.91 0-134.18-3-186.6-8.46-72.62-7.55-98.08-17.17-110.22-24.2-23.14-11.06-38.92-34.76-40.43-61.06-1.57-27.38 11.82-52 35.81-65.84l10.67-6.16a29 29 0 0 0 14.49-25.08V436a271.23 271.23 0 0 1 185.43-257.28 2.2 2.2 0 0 0 1.27-0.89 90.71 90.71 0 0 1 172.72-0.76 2.5 2.5 0 0 0 1.51 1.65A271.22 271.22 0 0 1 782.25 436v161.54a27.21 27.21 0 0 0 13.58 23.51l17.26 10c23.33 13.47 36.75 37.4 35.89 64-0.84 25.92-15 49.11-37.14 61.17-8.34 5.6-30.24 17.12-110.66 25.67-52.85 5.59-119.98 8.68-189.02 8.68z m-3.1-611.07a25.6 25.6 0 0 0-24.5 17.93 66.92 66.92 0 0 1-42.71 43A206.22 206.22 0 0 0 300.88 436v163.77a94.24 94.24 0 0 1-47 81.38l-10.68 6.16c-1.88 1.08-3.6 2.54-3.41 5.81 0.13 2.27 1.33 5.18 3.65 6.18a32 32 0 0 1 4.41 2.33c0.55 0.32 15.65 8.78 85.92 16 50 5.13 113.35 8 178.38 8s128.38-2.82 178.39-8c67.9-7 84.29-15.1 85.87-16a34.51 34.51 0 0 1 4.15-2.45c2.26-1.11 3.37-4 3.44-6.28 0.08-2.54-0.91-4.16-3.42-5.61l-17.26-10a92.39 92.39 0 0 1-46.08-79.8V436a206.22 206.22 0 0 0-141-195.61 67.76 67.76 0 0 1-42.78-43.17 25.62 25.62 0 0 0-24.4-17.72z m267.05 522.37zM600.87 837c-27.94 1.13-57.75 1.75-88.71 1.75-31.14 0-61.13-0.62-89.22-1.77a11.27 11.27 0 0 0-10.46 16.45 111.9 111.9 0 0 0 198.84 0A11.27 11.27 0 0 0 600.87 837z" p-id="1454"></path></svg>