<?xml version="1.0" standalone="no"?><!DOCTYPE svg PUBLIC "-//W3C//DTD SVG 1.1//EN" "http://www.w3.org/Graphics/SVG/1.1/DTD/svg11.dtd"><svg t="1729048838933" class="icon" viewBox="0 0 1024 1024" version="1.1" xmlns="http://www.w3.org/2000/svg" p-id="1617" xmlns:xlink="http://www.w3.org/1999/xlink" width="200" height="200"><path d="M843.13 684.33a32.5 32.5 0 0 1 0-65 33.49 33.49 0 0 0 33.46-33.45V268.34a33.5 33.5 0 0 0-33.46-33.45H318.5a33.49 33.49 0 0 0-33.45 33.45 32.5 32.5 0 0 1-65 0 98.56 98.56 0 0 1 98.45-98.45h524.63a98.57 98.57 0 0 1 98.46 98.45v317.54a98.56 98.56 0 0 1-98.46 98.45z" p-id="1618"></path><path d="M321.4 901.68a59.12 59.12 0 0 1-59-58.68l-0.22-33.72h-61.36A106 106 0 0 1 95 703.44V387.11a106 106 0 0 1 105.82-105.84h532.47a106 106 0 0 1 105.83 105.84v316.33a106 106 0 0 1-105.83 105.84h-218l-166.88 85.81a59 59 0 0 1-27.01 6.59zM200.82 346.27A40.89 40.89 0 0 0 160 387.11v316.33a40.89 40.89 0 0 0 40.84 40.84h80.72a45.66 45.66 0 0 1 45.54 45.25l0.28 43.29 162.38-83.5a45.75 45.75 0 0 1 20.83-5h222.7a40.88 40.88 0 0 0 40.83-40.84V387.11a40.88 40.88 0 0 0-40.83-40.84z" p-id="1619"></path><path d="M301.55 547.87m-45.72 0a45.72 45.72 0 1 0 91.44 0 45.72 45.72 0 1 0-91.44 0Z" p-id="1620"></path><path d="M467.34 547.87m-45.72 0a45.72 45.72 0 1 0 91.44 0 45.72 45.72 0 1 0-91.44 0Z" p-id="1621"></path><path d="M633.13 547.87m-45.72 0a45.72 45.72 0 1 0 91.44 0 45.72 45.72 0 1 0-91.44 0Z" p-id="1622"></path></svg>