<?xml version="1.0" standalone="no"?><!DOCTYPE svg PUBLIC "-//W3C//DTD SVG 1.1//EN" "http://www.w3.org/Graphics/SVG/1.1/DTD/svg11.dtd"><svg t="1729047619326" class="icon" viewBox="0 0 1024 1024" version="1.1" xmlns="http://www.w3.org/2000/svg" p-id="1081" xmlns:xlink="http://www.w3.org/1999/xlink" width="200" height="200"><path d="M21.333 0v1024V0zM42.667 0v1024V0zM64 0v1024V0zM85.333 0v1024V0zM106.667 0v1024V0zM128 0v1024V0zM149.333 0v1024V0zM170.667 0v1024V0zM192 0v1024V0zM213.333 0v1024V0zM234.667 0v1024V0zM256 0v1024V0zM277.333 0v1024V0zM298.667 0v1024V0zM320 0v1024V0zM341.333 0v1024V0zM362.667 0v1024V0zM384 0v1024V0zM405.333 0v1024V0zM426.667 0v1024V0zM448 0v1024V0zM469.333 0v1024V0zM490.667 0v1024V0zM512 0v1024V0zM533.333 0v1024V0zM554.667 0v1024V0zM576 0v1024V0zM597.333 0v1024V0zM618.667 0v1024V0zM640 0v1024V0zM661.333 0v1024V0zM682.667 0v1024V0zM704 0v1024V0zM725.333 0v1024V0zM746.667 0v1024V0zM768 0v1024V0zM789.333 0v1024V0zM810.667 0v1024V0zM832 0v1024V0zM853.333 0v1024V0zM874.667 0v1024V0zM896 0v1024V0zM917.333 0v1024V0zM938.667 0v1024V0zM960 0v1024V0zM981.333 0v1024V0zM1002.667 0v1024V0zM0 21.333h1024H0zM0 42.667h1024H0zM0 64h1024H0zM0 85.333h1024H0zM0 106.667h1024H0zM0 128h1024H0zM0 149.333h1024H0zM0 170.667h1024H0zM0 192h1024H0zM0 213.333h1024H0zM0 234.667h1024H0zM0 256h1024H0zM0 277.333h1024H0zM0 298.667h1024H0zM0 320h1024H0zM0 341.333h1024H0zM0 362.667h1024H0zM0 384h1024H0zM0 405.333h1024H0zM0 426.667h1024H0zM0 448h1024H0zM0 469.333h1024H0zM0 490.667h1024H0zM0 512h1024H0zM0 533.333h1024H0zM0 554.667h1024H0zM0 576h1024H0zM0 597.333h1024H0zM0 618.667h1024H0zM0 640h1024H0zM0 661.333h1024H0zM0 682.667h1024H0zM0 704h1024H0zM0 725.333h1024H0zM0 746.667h1024H0zM0 768h1024H0zM0 789.333h1024H0zM0 810.667h1024H0zM0 832h1024H0zM0 853.333h1024H0zM0 874.667h1024H0zM0 896h1024H0zM0 917.333h1024H0zM0 938.667h1024H0zM0 960h1024H0zM0 981.333h1024H0zM0 1002.667h1024H0zM753.333 85.333q69.667 0 128.5 34.334T975 212.833t34.333 128.5q0 50-19.166 97.167t-55.834 83.833L512 944.667 89.667 522.333Q53 485.667 33.833 438.5t-19.166-97.167q0-69.666 34.333-128.5t93.167-93.166 128.5-34.334q50.333 0 97.166 19t83.834 56L512 220.667l60.333-60.334Q609 123.667 656.167 104.5t97.166-19.167z m0 85.334q-33.333 0-64.666 12.666t-56 37.334L512 341.333 391.333 220.667q-24.666-24.667-56-37.334t-64.666-12.666q-46.667 0-85.834 22.833t-62 62T100 341.333q0 33.334 12.667 64.667T150 462l362 362 362-362q24.667-24.667 37.333-56T924 341.333q0-46.666-22.833-85.833t-62-62-85.834-22.833z" p-id="1082"></path></svg>