<?xml version="1.0" standalone="no"?><!DOCTYPE svg PUBLIC "-//W3C//DTD SVG 1.1//EN" "http://www.w3.org/Graphics/SVG/1.1/DTD/svg11.dtd"><svg t="1729048545477" class="icon" viewBox="0 0 1024 1024" version="1.1" xmlns="http://www.w3.org/2000/svg" p-id="2155" xmlns:xlink="http://www.w3.org/1999/xlink" width="200" height="200"><path d="M678.9 98.6H217.4c-33.9 0-61.4 26.2-61.4 58.5v715.7c0 32.2 27.5 58.5 61.4 58.5h584.4c33.9 0 61.4-26.2 61.4-58.5V304.5L678.9 98.6z m103 204.8H658.4v-138l123.5 138z m8.1 564.8H230.4c-5.7 0-10.1-3.8-10.1-7.2V168.1c0-3.4 4.3-7.2 10.1-7.2h380.3v151c0 27.8 22.6 50.3 50.3 50.3h139V861c0 3.4-4.3 7.2-10 7.2z m-0.2 0" p-id="2156"></path><path d="M557 352c0 17.7-14.3 32-32 32H352c-17.7 0-32-14.3-32-32s14.3-32 32-32h173c17.6 0 32 14.3 32 32zM707.5 511c0 17.7-14.3 32-32 32h-321c-17.7 0-32-14.3-32-32s14.3-32 32-32h321c17.6 0 32 14.3 32 32zM707.5 670c0 17.7-14.3 32-32 32h-321c-17.7 0-32-14.3-32-32s14.3-32 32-32h321c17.6 0 32 14.4 32 32z" p-id="2157"></path></svg>